<?xml version="1.0" standalone="no"?>
<!DOCTYPE svg PUBLIC "-//W3C//DTD SVG 20010904//EN"
 "http://www.w3.org/TR/2001/REC-SVG-20010904/DTD/svg10.dtd">
<svg version="1.0" xmlns="http://www.w3.org/2000/svg"
 width="200.000000pt" height="200.000000pt" viewBox="0 0 200.000000 200.000000"
 preserveAspectRatio="xMidYMid meet">
<metadata>
Created by potrace 1.11, written by Peter Selinger 2001-2013
</metadata>
<g transform="translate(0.000000,200.000000) scale(0.100000,-0.100000)"
fill="#000000" stroke="none">
<path d="M838 1884 c-347 -63 -628 -331 -715 -681 -25 -103 -22 -323 6 -428
82 -305 309 -542 606 -634 102 -32 136 -36 285 -35 115 1 148 5 223 28 251 75
447 237 560 461 38 77 75 186 85 255 9 58 9 223 0 275 -22 131 -101 274 -202
365 -22 19 -44 40 -50 46 -16 15 -127 79 -151 87 -11 3 -38 12 -60 20 -97 36
-256 39 -371 7 -123 -33 -208 -83 -300 -175 -137 -136 -204 -294 -200 -470 2
-49 6 -103 10 -119 35 -142 184 -291 322 -321 283 -63 540 122 561 404 7 99
-20 174 -84 238 -182 182 -484 74 -510 -182 -5 -46 -2 -60 20 -98 70 -119 247
-92 273 42 l7 31 -77 0 -76 0 5 31 c7 41 32 73 76 98 44 25 77 26 126 6 100
-42 122 -166 50 -286 -125 -208 -429 -192 -530 29 -29 62 -30 183 -3 262 64
186 233 308 426 308 198 0 373 -131 432 -323 17 -54 21 -164 8 -232 -15 -86
-76 -213 -132 -279 -230 -270 -628 -286 -879 -35 -127 127 -181 268 -175 450
4 115 18 181 59 281 140 346 506 558 872 506 l50 -7 -44 21 c-127 59 -346 83
-503 54z"/>
</g>
</svg>
